<svg width="138" height="40" viewBox="0 0 138 40" fill="none" xmlns="http://www.w3.org/2000/svg">
<path fill-rule="evenodd" clip-rule="evenodd" d="M38.0352 32V19.6667C38.0352 9.54145 29.827 1.33333 19.7018 1.33333C9.5766 1.33333 1.36849 9.54145 1.36849 19.6667V32C1.36849 35.6819 4.35326 38.6667 8.03516 38.6667H31.3685C35.0504 38.6667 38.0352 35.6819 38.0352 32ZM19.7018 0C8.84022 0 0.0351562 8.80507 0.0351562 19.6667V32C0.0351562 36.4183 3.61688 40 8.03516 40H31.3685C35.7868 40 39.3685 36.4183 39.3685 32V19.6667C39.3685 8.80507 30.5634 0 19.7018 0Z" fill="#2D2926"/>
<path d="M2.70215 20.6667C2.70215 11.4619 10.1641 4 19.3688 4C28.5736 4 36.0355 11.4619 36.0355 20.6667V26.2222C36.0355 32.3587 31.0609 37.3333 24.9244 37.3333H13.8133C7.67677 37.3333 2.70215 32.3587 2.70215 26.2222V20.6667Z" fill="#2D2926"/>
<path d="M34.0352 20.668C34.0352 25.0862 30.4534 28.668 26.0352 28.668C21.6169 28.668 18.0352 25.0862 18.0352 20.668C18.0352 16.2497 21.6169 12.668 26.0352 12.668C30.4534 12.668 34.0352 16.2497 34.0352 20.668Z" fill="white"/>
<path d="M20.7021 20.668C20.7021 25.0862 17.1204 28.668 12.7021 28.668C8.28387 28.668 4.70215 25.0862 4.70215 20.668C4.70215 16.2497 8.28387 12.668 12.7021 12.668C17.1204 12.668 20.7021 16.2497 20.7021 20.668Z" fill="white"/>
<circle cx="26.0355" cy="20.6673" r="5.33333" fill="#2D2926"/>
<circle cx="12.7015" cy="20.6673" r="5.33333" fill="#2D2926"/>
<circle cx="29.0345" cy="17.6673" r="2.33333" fill="white"/>
<circle cx="15.7025" cy="17.6673" r="2.33333" fill="white"/>
<path d="M53.7295 17.3325C57.3869 17.3325 59.9349 14.6979 59.9349 10.9539C59.9349 7.14053 57.3175 4.50586 53.5562 4.50586H48.7029V17.3325H53.7295ZM53.2789 7.10586C55.6015 7.10586 56.9709 8.52719 56.9709 10.9539C56.9709 13.3285 55.6709 14.7325 53.4522 14.7325H51.5109V7.10586H53.2789Z" fill="#2D2926"/>
<path d="M64.3324 17.3325L65.251 14.6285H69.3937L70.295 17.3325H73.2764L68.7177 4.50586H65.979L61.403 17.3325H64.3324ZM66.9844 9.53253C67.1404 9.06453 67.279 8.57919 67.331 8.28453C67.383 8.59653 67.539 9.09919 67.6777 9.53253L68.5964 12.2712H66.0657L66.9844 9.53253Z" fill="#2D2926"/>
<path d="M81.3559 13.0685C83.9732 13.0685 85.7239 11.3525 85.7239 8.78719C85.7239 6.22186 83.9732 4.50586 81.3559 4.50586H76.1559V17.3325H78.9639V13.0685H81.3559ZM80.7319 7.00186C82.0839 7.00186 82.7599 7.59119 82.7599 8.78719C82.7599 9.98319 82.0839 10.5725 80.7319 10.5725H78.9639V7.00186H80.7319Z" fill="#2D2926"/>
<path d="M94.0837 13.0685C96.701 13.0685 98.4517 11.3525 98.4517 8.78719C98.4517 6.22186 96.701 4.50586 94.0837 4.50586H88.8837V17.3325H91.6917V13.0685H94.0837ZM93.4597 7.00186C94.8117 7.00186 95.4877 7.59119 95.4877 8.78719C95.4877 9.98319 94.8117 10.5725 93.4597 10.5725H91.6917V7.00186H93.4597Z" fill="#2D2926"/>
<path d="M109.758 17.3325V14.7325H104.42V12.0805H109.152V9.61919H104.42V7.10586H109.758V4.50586H101.612V17.3325H109.758Z" fill="#2D2926"/>
<path d="M116.25 17.3325V12.8432H118.417L120.341 17.3325H123.409L121.156 12.2365C122.577 11.5085 123.288 10.3299 123.288 8.66586C123.288 6.01386 121.52 4.50586 118.4 4.50586H113.442V17.3325H116.25ZM116.25 7.00186H118.4C119.648 7.00186 120.324 7.59119 120.324 8.66586C120.324 9.75786 119.613 10.3819 118.382 10.3819H116.25V7.00186Z" fill="#2D2926"/>
<path d="M54.2495 34.8739C57.4562 34.8739 59.8482 32.9845 60.2989 30.1245H57.3869C57.0402 31.3899 55.8789 32.1699 54.3015 32.1699C52.2389 32.1699 50.9562 30.6619 50.9562 28.2525C50.9562 25.8085 52.2215 24.3352 54.3015 24.3352C55.8442 24.3352 56.9362 25.0632 57.3175 26.3459H60.2815C59.8829 23.4685 57.5775 21.6312 54.3709 21.6312C50.5402 21.6312 47.9922 24.2659 47.9922 28.2699C47.9922 32.3259 50.4015 34.8739 54.2495 34.8739Z" fill="#2D2926"/>
<path d="M66.3715 34.6659V30.1765H68.5381L70.4621 34.6659H73.5301L71.2768 29.5699C72.6981 28.8419 73.4088 27.6632 73.4088 25.9992C73.4088 23.3472 71.6408 21.8392 68.5208 21.8392H63.5635V34.6659H66.3715ZM66.3715 24.3352H68.5208C69.7688 24.3352 70.4448 24.9245 70.4448 25.9992C70.4448 27.0912 69.7341 27.7152 68.5035 27.7152H66.3715V24.3352Z" fill="#2D2926"/>
<path d="M85.0304 34.6659V32.0659H79.6917V29.4139H84.4237V26.9525H79.6917V24.4392H85.0304V21.8392H76.8837V34.6659H85.0304Z" fill="#2D2926"/>
<path d="M90.4651 34.6659L91.3838 31.9619H95.5264L96.4277 34.6659H99.4091L94.8504 21.8392H92.1118L87.5358 34.6659H90.4651ZM93.1171 26.8659C93.2731 26.3979 93.4118 25.9125 93.4638 25.6179C93.5158 25.9299 93.6717 26.4325 93.8104 26.8659L94.7291 29.6045H92.1984L93.1171 26.8659Z" fill="#2D2926"/>
<path d="M100.166 24.4392H103.806V34.6659H106.614V24.4392H110.254V21.8392H100.166V24.4392Z" fill="#2D2926"/>
<path d="M124.655 28.2352C124.655 24.3179 122.09 21.6139 118.363 21.6139C114.654 21.6139 112.088 24.3352 112.088 28.2525C112.088 32.1699 114.636 34.8739 118.346 34.8739C122.072 34.8739 124.655 32.1525 124.655 28.2352ZM121.691 28.2352C121.691 30.6619 120.443 32.1699 118.38 32.1699C116.3 32.1699 115.052 30.6965 115.052 28.2352C115.052 25.7912 116.3 24.3179 118.38 24.3179C120.443 24.3179 121.691 25.7912 121.691 28.2352Z" fill="#2D2926"/>
<path d="M130.806 34.6659V30.1765H132.973L134.897 34.6659H137.965L135.711 29.5699C137.133 28.8419 137.843 27.6632 137.843 25.9992C137.843 23.3472 136.075 21.8392 132.955 21.8392H127.998V34.6659H130.806ZM130.806 24.3352H132.955C134.203 24.3352 134.879 24.9245 134.879 25.9992C134.879 27.0912 134.169 27.7152 132.938 27.7152H130.806V24.3352Z" fill="#2D2926"/>
</svg>
